<svg height="20" viewBox="0 0 20 20" width="20" xmlns="http://www.w3.org/2000/svg" xmlns:xlink="http://www.w3.org/1999/xlink"><defs><rect id="a" height="3" rx="1.5" width="18" y="2"/><mask id="b" fill="#fff" height="3" width="18" x="0" y="0"><use xlink:href="#a"/></mask><path id="c" d="m9 3c1.1045695 0 2 .1045695 2-1s-.8954305-2-2-2-2 .8954305-2 2 .8954305 1 2 1z"/><mask id="d" fill="#fff" height="3.00265" width="4" x="0" y="0"><use xlink:href="#c"/></mask></defs><g fill="none" fill-rule="evenodd" transform="translate(1)"><path d="m1.99899903 5 .85778638 12.0090093c.07854241 1.0995938 1.04423921 1.9909907 2.15091136 1.9909907h7.98360553c1.1093731 0 2.0727734-.8970601 2.1509113-1.9909907l.8577864-12.0090093" stroke="#36434d" stroke-linecap="round" stroke-linejoin="round"/><g stroke="#35424c"><path d="m6.5 8v7" stroke-linecap="round"/><path d="m11.5 8v7" stroke-linecap="round"/><use mask="url(#b)" stroke-linecap="square" stroke-width="2" xlink:href="#a"/><use mask="url(#d)" stroke-linecap="square" stroke-width="2" xlink:href="#c"/></g></g></svg>